<?xml version="1.0" encoding="UTF-8" standalone="no"?>
<!-- Created with Inkscape (http://www.inkscape.org/) -->

<svg
   xmlns:dc="http://purl.org/dc/elements/1.1/"
   xmlns:cc="http://creativecommons.org/ns#"
   xmlns:rdf="http://www.w3.org/1999/02/22-rdf-syntax-ns#"
   xmlns:svg="http://www.w3.org/2000/svg"
   xmlns="http://www.w3.org/2000/svg"
   xmlns:sodipodi="http://sodipodi.sourceforge.net/DTD/sodipodi-0.dtd"
   xmlns:inkscape="http://www.inkscape.org/namespaces/inkscape"
   width="210mm"
   height="297mm"
   viewBox="0 0 744.09448819 1052.3622047"
   id="svg2"
   version="1.1"
   inkscape:version="0.91 r13725"
   sodipodi:docname="Edge.svg">
  <defs
     id="defs4" />
  <sodipodi:namedview
     id="base"
     pagecolor="#ffffff"
     bordercolor="#666666"
     borderopacity="1.0"
     inkscape:pageopacity="0.0"
     inkscape:pageshadow="2"
     inkscape:zoom="1.4"
     inkscape:cx="357.23566"
     inkscape:cy="568.41194"
     inkscape:document-units="px"
     inkscape:current-layer="layer1"
     showgrid="false"
     inkscape:window-width="1680"
     inkscape:window-height="987"
     inkscape:window-x="-8"
     inkscape:window-y="3"
     inkscape:window-maximized="1" />
  <metadata
     id="metadata7">
    <rdf:RDF>
      <cc:Work
         rdf:about="">
        <dc:format>image/svg+xml</dc:format>
        <dc:type
           rdf:resource="http://purl.org/dc/dcmitype/StillImage" />
        <dc:title></dc:title>
      </cc:Work>
    </rdf:RDF>
  </metadata>
  <g
     inkscape:label="Layer 1"
     inkscape:groupmode="layer"
     id="layer1">
    <path
       style="fill:#afc6e9;fill-rule:evenodd;stroke:#000000;stroke-width:3;stroke-linecap:butt;stroke-linejoin:miter;stroke-opacity:1"
       d="m 424.28571,646.64792 c 163.27546,1.49624 269.57559,-61.97938 324.28572,-184.28572 -68.35096,17.93081 -154.42137,50.52369 -411.42857,0 l -335.7142886,0 0,184.19643 c 140.9489486,0.18891 281.9056286,0.0893 422.8571386,0.0893 z"
       id="path3336"
       inkscape:connector-curvature="0"
       sodipodi:nodetypes="cccccc"
       inkscape:export-xdpi="981.35144"
       inkscape:export-ydpi="981.35144" />
    <path
       style="fill:none;fill-rule:evenodd;stroke:#000000;stroke-width:3;stroke-linecap:butt;stroke-linejoin:miter;stroke-opacity:1"
       d="m 0,625.93363 411.42857,0 c 206.78596,3.22524 277.70584,-83.81653 337.14286,-161.42857"
       id="path3338"
       inkscape:connector-curvature="0"
       sodipodi:nodetypes="ccc"
       inkscape:export-xdpi="981.35144"
       inkscape:export-ydpi="981.35144" />
    <path
       style="color:#000000;clip-rule:nonzero;display:inline;overflow:visible;visibility:visible;opacity:1;isolation:auto;mix-blend-mode:normal;color-interpolation:sRGB;color-interpolation-filters:linearRGB;solid-color:#000000;solid-opacity:1;fill:#b3b3b3;fill-opacity:1;fill-rule:evenodd;stroke:none;stroke-width:3;stroke-linecap:butt;stroke-linejoin:miter;stroke-miterlimit:4;stroke-dasharray:none;stroke-dashoffset:0;stroke-opacity:1;marker:none;color-rendering:auto;image-rendering:auto;shape-rendering:auto;text-rendering:auto;enable-background:accumulate"
       d="m 1.9608561,544.13369 0,-81.07143 167.3214239,0.004 167.32143,0.004 9.28572,1.80244 c 61.66022,11.96878 119.54063,19.80636 174.64286,23.64836 21.8083,1.52058 75.28466,1.75536 92.85714,0.40767 41.9035,-3.21372 68.29713,-7.83068 113.57143,-19.86672 9.625,-2.55878 18.08578,-4.82378 18.80171,-5.03333 1.24293,-0.3638 1.24729,-0.27573 0.0972,1.94833 -1.37893,2.66646 -15.85993,21.24221 -25.4265,32.61622 -30.01823,35.68969 -59.9374,61.5813 -93.04373,80.51871 -41.01337,23.46038 -92.17691,38.38608 -149.35727,43.57128 -26.05715,2.36289 -40.99275,2.50848 -258.03572,2.51528 l -218.0357139,0.007 0,-81.07143 z"
       id="path3340"
       inkscape:connector-curvature="0"
       inkscape:export-xdpi="981.35144"
       inkscape:export-ydpi="981.35144" />
    <path
       sodipodi:type="star"
       style="color:#000000;clip-rule:nonzero;display:inline;overflow:visible;visibility:visible;opacity:1;isolation:auto;mix-blend-mode:normal;color-interpolation:sRGB;color-interpolation-filters:linearRGB;solid-color:#000000;solid-opacity:1;fill:#ffffff;fill-opacity:1;fill-rule:evenodd;stroke:#000000;stroke-width:3.64208794;stroke-linecap:butt;stroke-linejoin:miter;stroke-miterlimit:4;stroke-dasharray:none;stroke-dashoffset:0;stroke-opacity:1;marker:none;color-rendering:auto;image-rendering:auto;shape-rendering:auto;text-rendering:auto;enable-background:accumulate"
       id="path3351"
       sodipodi:sides="4"
       sodipodi:cx="414.28571"
       sodipodi:cy="373.79077"
       sodipodi:r1="100.77759"
       sodipodi:r2="27.656532"
       sodipodi:arg1="1.5353502"
       sodipodi:arg2="2.3207484"
       inkscape:flatsided="false"
       inkscape:rounded="0.2"
       inkscape:randomized="0"
       d="m 417.85713,474.50506 c -16.69802,0.59212 -10.19623,-69.08882 -22.42222,-80.47741 -12.22599,-11.38859 -81.27136,0.0326 -81.86349,-16.66545 -0.59213,-16.69803 69.08881,-10.19624 80.47741,-22.42222 11.38859,-12.22599 -0.0326,-81.27137 16.66545,-81.86349 16.69803,-0.59213 10.19623,69.08881 22.42222,80.4774 12.22599,11.38859 81.27136,-0.0326 81.86349,16.66545 0.59213,16.69803 -69.08881,10.19624 -80.4774,22.42223 -11.38859,12.22598 0.0326,81.27136 -16.66546,81.86349 z"
       transform="matrix(0.75718858,-0.32427254,0.32427254,0.75718858,210.0975,430.81643)"
       inkscape:export-xdpi="981.35144"
       inkscape:export-ydpi="981.35144" />
    <text
       xml:space="preserve"
       style="font-style:normal;font-variant:normal;font-weight:normal;font-stretch:normal;font-size:256.32064819px;line-height:125%;font-family:'8514oem';-inkscape-font-specification:'8514oem';letter-spacing:0px;word-spacing:0px;fill:#ffcc00;fill-opacity:1;stroke:#000000;stroke-width:3;stroke-linecap:butt;stroke-linejoin:miter;stroke-opacity:1;"
       x="10.14545"
       y="625.29486"
       id="text3353"
       sodipodi:linespacing="125%"
       inkscape:export-xdpi="981.35144"
       inkscape:export-ydpi="981.35144"><tspan
         sodipodi:role="line"
         id="tspan3355"
         x="10.14545"
         y="625.29486"
         style="font-style:normal;font-variant:normal;font-weight:normal;font-stretch:normal;font-family:'Bauhaus 93';-inkscape-font-specification:'Bauhaus 93, ';fill:#ffcc00;stroke:#000000;stroke-width:3;">Edge</tspan></text>
  </g>
</svg>
